<?xml version="1.0" standalone="no"?>
<!DOCTYPE svg PUBLIC "-//W3C//DTD SVG 20010904//EN"
 "http://www.w3.org/TR/2001/REC-SVG-20010904/DTD/svg10.dtd">
<svg version="1.0" xmlns="http://www.w3.org/2000/svg"
 width="512.000000pt" height="512.000000pt" viewBox="0 0 512.000000 512.000000"
 preserveAspectRatio="xMidYMid meet">
<metadata>
Created by potrace 1.11, written by Peter Selinger 2001-2013
</metadata>
<g transform="translate(0.000000,512.000000) scale(0.100000,-0.100000)"
fill="#000000" stroke="none">
<path d="M2837 3814 c-3 -4 -25 -8 -49 -9 -24 -2 -43 -4 -43 -5 0 -5 -44 -11
-77 -12 -21 0 -38 -3 -38 -7 0 -4 -19 -8 -42 -10 -24 -1 -44 -6 -46 -12 -2 -5
-17 -9 -32 -9 -16 0 -31 -4 -34 -9 -3 -4 -17 -7 -31 -6 -14 2 -27 -1 -31 -6
-3 -5 -16 -9 -30 -9 -13 0 -24 -4 -24 -8 0 -5 -7 -9 -15 -10 -8 -1 -22 -3 -30
-4 -8 -1 -15 -5 -15 -9 0 -4 -9 -6 -20 -4 -11 2 -18 0 -15 -4 2 -5 -17 -16
-45 -25 -62 -20 -141 -62 -133 -70 4 -3 -3 -6 -14 -6 -11 0 -26 -7 -33 -15 -7
-8 -19 -15 -26 -15 -8 0 -14 -4 -14 -10 0 -5 -6 -10 -12 -10 -7 0 -38 -23 -68
-50 -30 -27 -61 -50 -69 -50 -8 0 -12 -3 -8 -6 3 -4 -12 -24 -33 -45 -22 -22
-37 -39 -34 -39 5 0 -8 -17 -38 -51 -10 -10 -17 -21 -15 -24 1 -2 -6 -14 -15
-25 -10 -11 -18 -22 -18 -25 0 -2 -11 -28 -24 -57 -30 -67 -40 -90 -41 -103 0
-5 -6 -19 -11 -30 -6 -11 -10 -27 -9 -35 0 -8 -2 -17 -6 -20 -16 -12 -33 -424
-18 -414 3 2 7 -24 8 -58 1 -34 7 -69 14 -77 10 -12 9 -13 -3 -6 -12 7 -13 6
-4 -6 5 -8 10 -27 10 -44 -1 -16 6 -35 14 -42 18 -14 18 -14 -38 -18 -24 -2
-40 1 -36 6 3 5 -1 9 -10 9 -18 0 -76 32 -76 43 0 4 -6 7 -14 7 -8 0 -17 6
-19 13 -3 6 -6 -10 -6 -36 -1 -27 3 -46 7 -43 4 3 7 -8 6 -24 -1 -17 4 -31 13
-34 8 -3 12 -10 9 -14 -10 -16 64 -68 85 -59 3 1 14 -5 24 -13 17 -13 18 -13
10 0 -6 12 -5 13 6 3 7 -7 28 -13 46 -13 23 0 33 -5 33 -15 0 -8 -1 -17 -2
-18 -2 -2 2 -10 8 -18 6 -8 10 -22 9 -31 -2 -10 1 -18 6 -18 5 0 9 -13 9 -29
0 -17 4 -32 9 -35 5 -3 11 -20 14 -38 7 -47 11 -61 22 -78 8 -13 15 -49 19
-95 0 -11 6 -23 12 -27 6 -4 10 -19 9 -33 -2 -14 1 -25 5 -25 5 0 15 -27 22
-60 6 -33 16 -60 20 -60 4 0 8 -13 8 -28 0 -15 6 -34 13 -41 10 -11 9 -12 -3
-6 -13 8 -13 7 -1 -8 7 -9 10 -17 6 -17 -4 0 -1 -7 6 -16 8 -9 12 -27 11 -39
-2 -12 4 -28 12 -35 9 -7 16 -19 16 -27 0 -8 3 -12 8 -10 9 6 33 -19 25 -27
-4 -3 -1 -6 5 -6 6 0 35 -11 64 -25 29 -13 64 -27 78 -29 14 -3 25 -5 25 -6 0
-1 11 -3 25 -4 14 -2 36 -7 50 -11 14 -5 93 -10 175 -11 180 -2 170 -1 156
-18 -7 -9 -8 -17 -2 -20 10 -7 9 -25 -2 -43 -5 -7 -4 -13 1 -13 5 0 10 -15 9
-32 0 -18 1 -55 2 -83 4 -79 3 -85 -26 -96 -16 -6 -29 -9 -29 -7 -1 2 -11 -6
-23 -16 -12 -11 -24 -17 -27 -13 -8 8 -33 -16 -27 -25 2 -5 -8 -8 -22 -8 -14
0 -24 4 -21 9 5 8 -40 26 -56 23 -5 -1 -8 2 -8 6 0 4 -12 9 -26 10 -15 1 -34
8 -42 15 -13 9 -14 9 -8 0 4 -8 1 -13 -8 -13 -9 0 -16 6 -16 13 0 8 -3 9 -8 1
-4 -6 -18 -14 -32 -17 -47 -10 -100 -33 -93 -40 3 -4 -1 -7 -10 -7 -8 0 -19
-9 -22 -21 -4 -11 -9 -18 -13 -15 -9 10 -34 -33 -26 -46 4 -7 3 -8 -4 -4 -8 5
-12 0 -12 -13 0 -12 -4 -21 -10 -21 -5 0 -10 -9 -10 -19 0 -11 -4 -22 -9 -26
-6 -3 -8 -14 -6 -25 2 -11 -1 -20 -6 -20 -6 0 -5 -8 2 -21 8 -15 8 -19 0 -15
-6 4 -11 4 -12 -1 0 -4 -2 -18 -3 -30 -2 -15 1 -20 8 -14 7 6 11 2 11 -14 0
-13 -4 -21 -9 -18 -4 3 -5 -5 0 -18 4 -13 7 -30 7 -36 0 -7 4 -13 9 -13 4 0 7
-3 7 -7 -4 -23 2 -43 11 -38 6 3 10 1 10 -5 0 -17 36 -61 44 -53 3 3 6 -3 6
-15 0 -12 -4 -22 -10 -22 -5 0 -10 -7 -10 -15 0 -8 -4 -15 -9 -15 -6 0 -8 -9
-6 -20 2 -11 0 -22 -6 -25 -5 -4 -9 -22 -9 -41 0 -20 -5 -34 -12 -34 -10 0 -9
-3 1 -9 9 -6 10 -11 2 -15 -12 -8 -12 -96 0 -96 5 0 9 -5 9 -11 0 -5 -5 -7
-11 -3 -8 4 -8 0 0 -15 11 -19 20 -21 114 -21 l103 0 0 54 c-1 30 2 52 7 49 4
-2 7 10 7 27 0 27 28 76 31 53 5 -41 2 -79 -6 -85 -6 -5 -4 -8 5 -8 13 0 13
-1 0 -10 -11 -7 -11 -10 -2 -10 7 0 10 -5 7 -10 -4 -6 -10 -8 -15 -5 -4 3 -7
-3 -5 -12 2 -10 4 -24 4 -30 1 -10 126 -13 589 -13 l588 0 2 37 c2 20 5 40 8
44 2 4 -1 11 -7 15 -8 5 -7 9 2 14 10 7 10 12 1 23 -10 12 -9 16 3 21 9 3 14
2 10 -3 -3 -5 -1 -11 5 -13 5 -1 11 -12 13 -23 1 -11 6 -25 10 -32 4 -6 1 -14
-5 -16 -10 -4 -10 -6 0 -6 7 -1 10 -6 7 -11 -3 -6 -3 -19 0 -30 6 -19 15 -20
127 -20 96 0 119 3 115 13 -3 8 -1 20 3 27 5 8 6 19 2 25 -4 5 -8 24 -9 40 -1
26 -7 59 -13 75 -1 3 -2 8 -1 13 0 4 -3 7 -7 7 -4 0 -8 10 -9 21 -1 12 -10 31
-20 42 -13 15 -14 18 -3 13 9 -5 8 -2 -2 7 -10 8 -15 17 -11 20 3 4 1 7 -5 7
-7 0 -12 7 -12 16 0 8 -4 12 -10 9 -6 -4 -10 7 -10 25 0 17 4 29 9 26 9 -6 21
14 27 43 1 8 8 17 15 21 6 4 9 12 5 18 -3 6 -2 13 4 17 5 3 10 19 10 35 0 16
5 32 10 35 8 5 8 11 1 19 -6 7 -8 16 -4 20 4 4 9 19 10 34 3 22 1 24 -7 12 -9
-12 -10 -11 -5 7 3 12 -1 47 -8 77 -8 30 -12 58 -8 62 3 4 0 4 -6 0 -8 -5 -17
3 -25 21 -7 15 -18 32 -25 36 -8 5 -11 12 -8 18 4 5 -1 9 -10 9 -9 0 -13 4
-10 10 3 5 -1 10 -10 10 -8 0 -18 7 -21 15 -4 8 -11 15 -16 15 -5 0 -24 10
-41 22 -17 12 -27 16 -22 7 8 -12 6 -12 -8 0 -9 7 -17 10 -17 6 0 -4 -8 -1
-17 6 -14 12 -16 12 -8 0 6 -11 5 -12 -6 -5 -21 13 -39 14 -39 1 0 -8 -3 -8
-8 -2 -8 12 -52 16 -52 5 0 -4 -13 -6 -30 -5 -16 1 -30 -2 -30 -6 0 -4 -8 -10
-19 -14 -10 -3 -29 -14 -41 -25 -21 -18 -50 -18 -50 1 0 5 -6 9 -14 9 -7 0
-31 8 -52 17 -22 9 -42 17 -46 17 -3 1 -10 4 -14 9 -4 4 -22 7 -41 7 -30 0
-38 8 -34 33 0 4 -3 7 -7 7 -5 0 -9 6 -9 13 0 6 -3 41 -7 77 -13 109 -15 154
-10 172 3 12 25 20 74 28 38 6 73 11 76 10 4 -1 10 3 13 8 3 6 20 12 36 15 29
5 46 10 83 24 24 9 23 9 57 17 17 4 37 10 45 13 8 4 18 7 22 7 3 1 10 4 14 9
4 4 18 7 31 7 13 0 23 4 23 8 0 4 12 9 26 10 15 1 32 6 38 11 6 5 20 11 31 13
11 1 25 10 31 18 12 15 15 120 4 120 -3 0 -6 23 -8 52 -1 28 -6 56 -10 62 -4
6 -7 25 -7 41 0 17 -5 29 -11 28 -5 -1 -9 12 -8 30 1 18 -2 38 -8 44 -6 7 -8
13 -5 13 3 0 1 15 -4 33 -6 17 -13 46 -16 62 -2 17 -8 31 -13 33 -4 1 -6 16
-4 32 2 16 -1 32 -6 35 -6 3 -10 19 -10 35 0 16 -4 32 -10 35 -5 3 -10 22 -10
41 0 19 -4 33 -9 30 -4 -3 -7 7 -5 21 1 15 -2 36 -8 47 -6 11 -12 34 -14 51
-1 16 -5 39 -8 50 -2 11 -5 33 -5 48 -1 20 -5 26 -13 21 -8 -5 -7 0 2 11 9 11
10 16 3 11 -12 -7 -16 17 -16 97 0 9 -2 17 -6 17 -3 0 -6 65 -6 145 0 80 2
145 5 145 3 0 7 14 8 32 2 18 7 35 12 38 4 3 12 17 15 33 4 15 10 25 15 22 4
-2 13 7 20 20 7 14 26 30 41 37 15 7 25 17 22 23 -4 5 -3 7 2 3 4 -4 23 -1 41
7 38 16 35 15 70 15 14 0 23 4 19 10 -3 6 -1 10 4 10 6 0 11 -5 11 -10 0 -7 6
-7 18 -1 26 14 34 14 43 -1 5 -7 9 -8 9 -3 0 6 26 10 57 10 32 -1 69 5 83 12
14 7 18 13 10 13 -10 0 -11 3 -4 8 14 9 13 112 -1 112 -5 0 -3 5 5 10 8 5 10
10 5 10 -6 0 -12 17 -13 37 -2 20 -6 42 -10 48 -5 5 -7 25 -7 43 1 21 -3 32
-12 32 -8 0 -12 4 -8 9 3 5 2 12 -3 15 -4 2 -9 19 -10 38 -2 18 -7 35 -12 36
-6 2 -10 10 -10 18 0 15 -70 122 -70 108 -1 -5 -9 1 -19 13 -10 12 -21 19 -25
16 -3 -4 -6 -2 -6 4 0 9 -64 47 -82 48 -3 0 -10 3 -14 8 -4 4 -16 7 -26 7 -10
0 -18 4 -18 9 0 9 -32 16 -114 26 -22 3 -42 9 -45 13 -4 5 -30 8 -59 8 -30 -1
-55 1 -57 4 -5 9 -210 5 -224 -5 -10 -5 -12 -4 -7 3 9 14 -3 15 -24 2 -9 -5
-19 -5 -26 0 -6 6 -14 7 -17 4z m-747 -1594 c0 -5 -2 -10 -4 -10 -3 0 -8 5
-11 10 -3 6 -1 10 4 10 6 0 11 -4 11 -10z m274 -518 c3 -5 -1 -9 -9 -9 -8 0
-12 4 -9 9 3 4 7 8 9 8 2 0 6 -4 9 -8z"/>
</g>
</svg>
