<?xml version="1.0" standalone="no"?>
<!DOCTYPE svg PUBLIC "-//W3C//DTD SVG 20010904//EN"
 "http://www.w3.org/TR/2001/REC-SVG-20010904/DTD/svg10.dtd">
<svg version="1.0" xmlns="http://www.w3.org/2000/svg"
 width="300.000000pt" height="300.000000pt" viewBox="0 0 300.000000 300.000000"
 preserveAspectRatio="xMidYMid meet">
<metadata>
Created by potrace 1.11, written by Peter Selinger 2001-2013
</metadata>
<g transform="translate(0.000000,300.000000) scale(0.100000,-0.100000)"
fill="#000000" stroke="none">
<path d="M1690 2234 c-8 -1 -55 -8 -105 -14 -49 -7 -94 -15 -100 -18 -5 -3
-21 -7 -36 -9 -60 -6 -253 -94 -310 -141 -89 -72 -159 -172 -190 -271 -30 -96
-32 -294 -4 -408 7 -30 -21 -31 -71 -3 -20 12 -39 19 -42 16 -8 -9 17 -82 33
-96 8 -6 36 -17 62 -24 34 -9 49 -18 51 -32 8 -45 106 -379 112 -382 5 -2 6
-11 3 -21 -9 -35 62 -83 152 -103 22 -5 80 -10 130 -11 l90 -2 3 -85 3 -85
-50 -23 c-45 -21 -52 -22 -73 -9 -13 8 -43 15 -67 16 -86 2 -155 -74 -164
-181 -4 -43 23 -126 45 -139 6 -4 7 -12 2 -20 -5 -8 -9 -18 -11 -24 -1 -5 -4
-21 -7 -35 -11 -47 -14 -89 -9 -110 5 -17 13 -20 64 -20 33 0 59 3 60 8 0 4 2
25 5 46 7 67 26 70 22 3 l-4 -57 343 0 c267 0 343 3 344 13 1 6 2 26 3 44 0
17 5 35 9 40 5 4 8 3 6 -2 -1 -6 2 -29 6 -52 l8 -43 72 0 72 0 -4 38 c-5 48
-21 99 -44 139 -18 32 -18 33 6 85 61 135 -19 298 -146 300 -68 1 -86 -2 -108
-21 -21 -19 -22 -19 -61 0 -22 11 -54 22 -70 26 -17 3 -30 11 -31 17 0 6 -2
20 -5 31 -9 42 -13 134 -6 139 4 2 23 7 42 10 19 3 67 15 105 27 39 12 75 22
80 24 6 1 24 7 40 14 17 7 43 15 59 18 l29 6 -6 66 c-3 36 -17 113 -32 171
-15 58 -28 114 -30 125 -1 11 -5 27 -8 35 -21 51 -49 221 -53 315 -3 101 -1
114 22 162 30 62 67 80 182 89 42 3 80 9 84 12 6 7 12 62 8 72 -1 3 -4 17 -5
31 -5 40 -43 149 -62 178 -31 49 -108 93 -193 110 -50 10 -214 20 -250 15z"/>
</g>
</svg>
